<?xml version="1.0" encoding="UTF-8"?>
<svg width="574px" height="111px" viewBox="0 0 574 111" version="1.1" xmlns="http://www.w3.org/2000/svg" xmlns:xlink="http://www.w3.org/1999/xlink">
    <title>Artboard Copy 5</title>
    <defs>
        <polygon id="path-1" points="0 105 563 105 563 0 0 0"></polygon>
    </defs>
    <g id="Artboard-Copy-5" stroke="none" stroke-width="1" fill="none" fill-rule="evenodd">
        <g id="Group-16-Copy-9" transform="translate(5.000000, 3.000000)">
            <polygon id="Fill-1" fill="#000000" points="141.422061 28 153.183584 63.4003403 163.348783 28 178 28 160.857587 83 146.005955 83 133.149146 45.3989877 120.590627 83 105.540911 83 88 28 103.648628 28 113.813827 63.2995462 125.773433 28"></polygon>
            <g id="Group-15">
                <path d="M200.332106,51.7805287 L214.174047,49.7993069 C217.329895,49.4021111 218.348525,47.8157066 218.348525,45.9343783 C218.348525,42.0694498 215.295016,38.7967472 208.88336,38.7967472 C202.267027,38.7967472 198.601863,42.8614628 198.194887,47.7181915 L184.657584,44.8426847 C185.573874,36.3208146 193.715773,26.8071443 208.781021,26.8071443 C226.592762,26.8071443 233.209095,36.6181167 233.209095,47.618298 L233.209095,74.5752826 C233.209095,77.448411 233.513732,81.3133395 233.920708,83.1970462 L219.976429,83.1970462 C219.671792,81.7105353 219.367155,78.7375133 219.367155,76.6563979 C216.515943,81.0160373 211.120538,84.7834507 202.773961,84.7834507 C190.764602,84.7834507 183.434276,76.8538066 183.434276,68.3319365 C183.536615,58.5185856 190.9669,53.069631 200.332106,51.7805287 M217.941549,60.8970032 L217.941549,58.4210705 L205.320536,60.3023988 C201.450695,60.8970032 198.397185,62.980497 198.397185,67.2402428 C198.397185,70.510567 200.841421,73.5834825 205.727512,73.5834825 C211.936869,73.5834825 217.941549,70.6104605 217.941549,60.8970032" id="Fill-2" fill="#000000"></path>
                <path d="M245.423847,83.1970462 L245.423847,28.6884726 L259.675143,28.6884726 L259.675143,35.3290144 C262.728653,29.9775749 269.95426,27.1044465 276.163618,27.1044465 C283.798581,27.1044465 290.005558,30.2748771 292.85677,36.220921 C297.335885,29.5803792 303.238225,27.1044465 310.668511,27.1044465 C321.052346,27.1044465 331.026826,33.1503839 331.026826,47.8157066 L331.026826,83.1970462 L316.775529,83.1970462 L316.775529,50.7887286 C316.775529,44.9425782 313.824359,40.4830453 306.80105,40.4830453 C300.287055,40.4830453 296.419594,45.3397739 296.419594,51.2858178 L296.419594,83.2969398 L281.152047,83.2969398 L281.152047,50.7887286 C281.152047,44.9425782 278.098538,40.4830453 271.277527,40.4830453 C264.661193,40.4830453 260.793732,45.2398804 260.793732,51.2858178 L260.793732,83.2969398 L245.423847,83.2969398 L245.423847,83.1970462 Z" id="Fill-4" fill="#000000"></path>
                <path d="M344.15763,104.008913 L344.15763,28.6891861 L358.408927,28.6891861 L358.408927,35.0324258 C361.155419,30.7703015 367.467116,27.1027816 375.916031,27.1027816 C392.302166,27.1027816 401.87205,39.29455 401.87205,55.5462772 C401.87205,72.097685 391.285916,84.287075 375.406716,84.287075 C367.669414,84.287075 358.508886,77.6465332 358.508886,77.6465332 L358.508886,104.008913 L344.15763,104.008913 Z M372.862522,40.3838653 C365.125219,40.3838653 358.815903,46.032607 358.815903,55.7460643 C358.815903,65.4571432 365.125219,71.2057784 372.862522,71.2057784 C380.597444,71.2057784 386.806801,65.5570367 386.806801,55.7460643 C386.806801,46.032607 380.597444,40.3838653 372.862522,40.3838653 L372.862522,40.3838653 Z" id="Fill-6" fill="#000000"></path>
                <mask id="mask-2" fill="white">
                    <use xlink:href="#path-1"></use>
                </mask>
                <g id="Clip-9"></g>
                <polygon id="Fill-8" fill="#000000" mask="url(#mask-2)" points="411.336025 83.1970462 426.603571 83.1970462 426.603571 2.92307518 411.336025 2.92307518"></polygon>
                <path d="M446.962363,1.23749066 C452.255429,1.23749066 456.327568,5.29982785 456.327568,10.4538587 C456.327568,15.3105874 452.255429,19.4728181 446.962363,19.4728181 C441.873974,19.4728181 437.597157,15.4104809 437.597157,10.4538587 C437.597157,5.29982785 441.771635,1.23749066 446.962363,1.23749066 L446.962363,1.23749066 Z M439.836714,83.1977598 L455.104261,83.1977598 L455.104261,28.6891861 L439.836714,28.6891861 L439.836714,83.1977598 Z" id="Fill-10" fill="#000000" mask="url(#mask-2)"></path>
                <path d="M486.659411,22.6442001 L486.659411,28.7876526 L498.873449,28.7876526 L498.873449,41.6715405 L485.640782,41.6715405 L485.640782,83.2962262 L470.373235,83.2962262 L470.373235,41.6715405 L461.212707,41.6715405 L461.212707,28.7876526 L471.391865,28.7876526 L471.391865,22.5443065 C471.391865,10.255023 479.229126,2.22786373 491.443163,2.22786373 C494.599012,2.22786373 497.652521,2.82246812 498.873449,3.31955739 L498.873449,15.5089474 C498.059497,15.3115387 496.633891,14.914343 494.294375,14.914343 C490.933849,14.914343 486.659411,16.400854 486.659411,22.6442001" id="Fill-11" fill="#000000" mask="url(#mask-2)"></path>
                <polygon id="Fill-12" fill="#000000" mask="url(#mask-2)" points="511.698902 105 524.931569 76.5565044 501.010429 28.6884726 518.010598 28.6884726 532.973508 60.6995945 546.815449 28.6884726 562.999286 28.6884726 527.680441 105"></polygon>
                <path d="M81.569634,29.3601377 C74.2274078,4.36534759 50.8774625,-4.77015426 29.7813546,2.33180058 C8.81614537,9.37429497 -5.38517186,31.1629782 1.95705433,56.1577684 C4.48696889,64.8175867 9.08270269,71.603212 14.6899263,76.4432917 C18.2813102,79.5328561 21.8560343,81.354724 24.2479102,82.3489025 L30.7595248,68.1021813 C29.540977,67.5432532 28.2891096,66.8154574 27.056282,65.8712257 C22.5081477,62.3892224 20.1019919,58.4672118 17.5625574,50.830113 C11.8053953,33.5223685 22.2035108,20.8929712 34.1129111,16.9233923 C46.15797,12.8919745 60.7948228,17.1017736 65.9093914,34.5546017 C71.02396,52.0074297 61.3088976,64.3966068 49.2662187,68.4256461 C47.940572,68.8751671 46.5863657,69.2057671 45.2154994,69.4317168 L37.9565724,85.3195461 C43.1139806,85.5264684 48.4118073,84.7677532 53.5977752,83.0172379 C74.6938831,75.915283 88.8595007,54.2217365 81.569634,29.3601377" id="Fill-13" fill="#000000" mask="url(#mask-2)"></path>
                <polygon id="Fill-14" fill="#354BE7" mask="url(#mask-2)" points="7.34674814 97.850239 27.7907426 54.2918998 42.8559912 54.2918998 22.4119967 97.850239"></polygon>
            </g>
        </g>
    </g>
</svg>